<svg width="10" height="18" viewBox="0 0 10 18" fill="none" xmlns="http://www.w3.org/2000/svg">
<path d="M0.988766 0.499441C0.857922 0.633382 0.784668 0.813196 0.784668 1.00044C0.784668 1.18769 0.857922 1.3675 0.988766 1.50144L8.29827 8.99994L0.988766 16.4969C0.857922 16.6309 0.784668 16.8107 0.784668 16.9979C0.784668 17.1852 0.857922 17.365 0.988766 17.4989C1.05236 17.5643 1.12839 17.6162 1.21238 17.6516C1.29637 17.6871 1.38661 17.7053 1.47777 17.7053C1.56893 17.7053 1.65916 17.6871 1.74315 17.6516C1.82714 17.6162 1.90317 17.5643 1.96677 17.4989L9.73977 9.52344C9.87629 9.38338 9.95269 9.19553 9.95269 8.99994C9.95269 8.80435 9.87629 8.6165 9.73977 8.47644L1.96677 0.500941C1.90317 0.435626 1.82714 0.383712 1.74315 0.348265C1.65916 0.312818 1.56893 0.294556 1.47777 0.294556C1.38661 0.294556 1.29637 0.312818 1.21238 0.348265C1.12839 0.383712 1.05236 0.435626 0.988766 0.500941V0.499441Z" fill="black"/>
</svg>
