<svg width="24" height="24" viewBox="0 0 24 24" fill="none" xmlns="http://www.w3.org/2000/svg">
<path d="M14.8288 12.026L16.2428 13.44L11.9998 17.683L7.75684 13.44L9.17184 12.026L10.9998 13.854V6.317H12.9998V13.854L14.8288 12.026Z" fill="black"/>
<path fill-rule="evenodd" clip-rule="evenodd" d="M19.778 19.778C15.482 24.074 8.518 24.074 4.222 19.778C-0.0739999 15.482 -0.0739999 8.518 4.222 4.222C8.518 -0.0739999 15.482 -0.0739999 19.778 4.222C24.074 8.518 24.074 15.482 19.778 19.778ZM18.364 18.364C17.5283 19.1997 16.5361 19.8627 15.4442 20.315C14.3522 20.7673 13.1819 21.0001 12 21.0001C10.8181 21.0001 9.64777 20.7673 8.55583 20.315C7.46389 19.8627 6.47173 19.1997 5.636 18.364C4.80027 17.5283 4.13733 16.5361 3.68503 15.4442C3.23274 14.3522 2.99994 13.1819 2.99994 12C2.99994 10.8181 3.23274 9.64777 3.68503 8.55583C4.13733 7.46389 4.80027 6.47173 5.636 5.636C7.32384 3.94816 9.61304 2.99994 12 2.99994C14.387 2.99994 16.6762 3.94816 18.364 5.636C20.0518 7.32384 21.0001 9.61304 21.0001 12C21.0001 14.387 20.0518 16.6762 18.364 18.364Z" fill="black"/>
</svg>
