<svg width="70" height="12" viewBox="0 0 70 12" fill="none" xmlns="http://www.w3.org/2000/svg">
<path fill-rule="evenodd" clip-rule="evenodd" d="M2.79895 11.9807L3.78064 7.7746L0.516602 4.94678L4.81616 4.57465L6.5 0.607605L8.18384 4.57385L12.4827 4.94598L9.21863 7.7738L10.201 11.9799L6.5 9.74744L2.79895 11.9807ZM17.799 11.9807L18.7806 7.7746L15.5166 4.94678L19.8162 4.57465L21.5 0.607605L23.1838 4.57385L27.4827 4.94598L24.2186 7.7738L25.201 11.9799L21.5 9.74744L17.799 11.9807ZM32.7806 7.7746L31.799 11.9807L35.5 9.74744L39.201 11.9799L38.2186 7.7738L41.4827 4.94598L37.1838 4.57385L35.5 0.607605L33.8162 4.57465L29.5166 4.94678L32.7806 7.7746ZM45.799 11.9807L46.7806 7.7746L43.5166 4.94678L47.8162 4.57465L49.5 0.607605L51.1838 4.57385L55.4827 4.94598L52.2186 7.7738L53.201 11.9799L49.5 9.74744L45.799 11.9807ZM60.7806 7.7746L59.799 11.9807L63.5 9.74744L67.201 11.9799L66.2186 7.7738L69.4827 4.94598L65.1838 4.57385L63.5 0.607605L61.8162 4.57465L57.5166 4.94678L60.7806 7.7746Z" fill="black"/>
</svg>
